<?xml version="1.0" encoding="UTF-8"?>
<svg id="_Слой_1" data-name="Слой_1" xmlns="http://www.w3.org/2000/svg" version="1.1" viewBox="0 0 256 256">
  <!-- Generator: Adobe Illustrator 29.3.1, SVG Export Plug-In . SVG Version: 2.1.0 Build 151)  -->
  <path d="M205.61,91.53c-8.74-12.71-23.04-19.64-37.26-24.43-17.58-5.93-36.04-9.84-54.62-10.35-17.37-.48-38.6.66-53.38,10.94-13.2,9.18-16.67,27.36-16.62,42.47.06,16.3,4.88,32.37,12.54,46.67,2.25,4.2,4.76,8.31,7.52,12.25,1.35,3.1,2.96,6.08,5.36,8.53,3.67,3.74,8.65,6.45,13.03,9.26,4.78,3.07,9.6,6.26,14.66,8.86,2.28,1.17,4.67,2.15,7,2.34,11.87,3.01,24.28,3.34,36.6,3.83,4.25-2.06,8.46-4.22,12.91-5.79,3.25-1.15,6.48-1.56,9.79-1.86,6.65-4.4,12.74-9.65,18.32-15.34,11.57-11.8,22.36-25.43,28.06-41.1,5.41-14.88,5.3-32.86-3.91-46.26Z"/>
</svg>