<svg width="50" height="50" viewBox="0 0 50 50" fill="none" xmlns="http://www.w3.org/2000/svg">

<!-- skills -->

<path id='css' d="M27.6695 6.98776L6.33046 6.98269L6.6751 11.1348L23.0687 11.1373L22.6554 15.4377H11.9043L12.293 19.5113H22.3017L21.7096 25.0901L16.9987 26.3634L12.2126 25.0812L11.9082 21.74H7.68181L8.15083 27.8434L16.9987 30.5396L25.6976 28.117L27.6682 6.98903L27.6695 6.98776ZM0 0H34L30.9073 34.1418L16.9624 38L3.09527 34.1393L0 0Z" fill="#7572D5"/>

<path id='html' d="M11.384 15.4371L11.0086 11.1341L27.2941 11.1392L27.6669 6.9874L6.3344 6.98231L7.46462 19.6651H22.2406L21.7131 25.0898L17.0013 26.3628L12.2167 25.0809L11.9127 21.7397H7.68806L8.22199 28.3434L17 30.6391L25.7092 28.3549L26.9134 15.4396H11.384V15.4371ZM0 0H34L30.9081 34.1417L16.9636 38L3.09835 34.1404L0 0Z" fill="#7572D5"/>

<g id='react'>
<path d="M42 19.7112C42 16.9898 39.1233 14.4628 34.3288 12.7133L33.4658 12.4217V12.033C34.5205 6.68738 33.7534 2.70247 31.3562 1.24458C28.9589 -0.213309 25.411 1.14739 21.5753 4.54913L21 5.13229L20.8082 4.93791H20.6164C16.6849 1.24458 12.8493 -0.018924 10.4521 1.34177C8.05479 2.70247 7.38356 6.49299 8.34247 11.4498C8.44334 11.7652 8.5077 12.0913 8.53425 12.4217L7.47945 12.8105C2.78082 14.4628 0 16.9898 0 19.7112C0 22.4326 3.06849 25.154 7.86301 26.9035L8.53425 27.0978C8.41578 27.4419 8.35107 27.8026 8.34247 28.167C7.38356 33.0266 8.24657 36.7199 10.4521 38.0806C12.6575 39.4413 16.6849 38.1778 20.5205 34.7761L21.0959 34.2901L21.863 35.0677C24.5479 37.4003 27.2329 38.6638 29.3425 38.6638C30.0866 38.681 30.8196 38.4784 31.4521 38.0806C33.8493 36.7199 34.7123 32.735 33.6575 27.681V27.4866C33.6161 27.3267 33.5841 27.1644 33.5616 27.0007H33.8493C38.9315 25.154 42 22.5298 42 19.7112ZM39.2192 19.7112C39.2192 20.8775 37.1096 22.9186 32.9863 24.2793H32.7945C32.2918 22.7158 31.6831 21.1895 30.9726 19.7112C31.6438 18.1561 32.2192 16.601 32.6986 15.1431L33.4658 15.3375C37.3014 16.6982 39.2192 18.5449 39.2192 19.7112ZM23.6849 32.9294L22.9178 32.3463C24.0158 31.1132 25.0404 29.815 25.9863 28.4585L30.8767 27.681C30.9726 27.8754 30.9726 28.0698 31.0685 28.167C31.4102 29.9274 31.4749 31.7316 31.2603 33.5126C31.1255 34.3643 30.7218 35.1487 30.1096 35.748C29.1507 36.3312 26.5616 35.5536 23.6849 32.9294ZM22.4384 28.6529L21.0959 30.4024L19.5616 28.6529H22.4384ZM9.30137 15.046C9.78333 16.6484 10.3926 18.2086 11.1233 19.7112C10.392 21.2471 9.7828 22.8396 9.30137 24.4736L8.72603 24.2793C7.04685 23.7421 5.48454 22.8843 4.12329 21.7522C3.77081 21.5265 3.46913 21.2281 3.23785 20.8765C3.00656 20.5248 2.85085 20.1278 2.78082 19.7112C2.78082 18.5449 4.69863 16.6982 8.34247 15.4347L9.30137 15.046ZM19.5616 10.7695L21 9.11719L22.4384 10.7695H19.5616ZM30.1096 3.6744C31.1644 4.25756 31.7397 7.17334 30.8767 11.4498C30.8811 11.5025 30.8749 11.5555 30.8584 11.6056C30.8419 11.6558 30.8155 11.702 30.7808 11.7414L25.9863 10.9639C25.0404 9.60744 24.0158 8.30924 22.9178 7.07615L23.4931 6.59018C26.5616 3.86879 29.0548 3.09124 30.1096 3.6744ZM14.0959 13.9768L13.3288 15.2403L12.6575 16.5038C12.3699 15.8235 12.1781 15.1431 11.8904 14.3656L14.0959 13.9768ZM11.8904 25.0568C12.1781 24.3765 12.3699 23.6961 12.6575 22.9186L13.3288 24.1821L14.0959 25.4456L11.8904 25.0568ZM27.9041 19.7112C27.4162 20.7768 26.872 21.815 26.274 22.8214C25.6986 23.8905 25.0274 24.8624 24.4521 25.8343H17.5479C16.8767 24.7652 16.2055 23.7933 15.726 22.8214C15.1233 21.8177 14.579 20.7793 14.0959 19.7112C14.5612 18.6343 15.1061 17.5946 15.726 16.601C16.2769 15.5941 16.8853 14.6205 17.5479 13.6853C19.8453 13.491 22.1547 13.491 24.4521 13.6853C25.1233 14.6572 25.6986 15.6291 26.274 16.601C26.8939 17.5946 27.4388 18.6343 27.9041 19.7112ZM28.6712 15.2403L27.9041 13.9768L30.1096 14.4628C29.8961 15.1587 29.6399 15.8404 29.3425 16.5038L28.6712 15.2403ZM27.9041 25.4456L28.6712 24.1821L29.3425 22.8214L30.2055 25.0568L27.9041 25.4456ZM18.9863 6.97895H19.0822L16.0137 10.8667L11.2192 11.6442C11.1233 11.3526 11.1233 11.1582 11.0274 10.8667C10.2603 6.88176 10.8356 4.16036 11.7945 3.6744C12.0491 3.50492 12.3561 3.43577 12.6575 3.48001C14 3.48001 16.3014 4.45194 18.8904 6.78457L18.9863 6.97895ZM11.0274 28.6529C11.0449 28.3529 11.1096 28.0575 11.2192 27.7782L16.1096 28.4585C17.0315 29.8331 18.0574 31.1329 19.1781 32.3463L18.9863 32.5406L18.7945 32.735C17.4872 33.9625 15.9564 34.9198 14.2877 35.5536C13.9216 35.748 13.5206 35.8654 13.1086 35.8988C12.6967 35.9322 12.2823 35.8809 11.8904 35.748C10.8356 35.1648 10.2603 32.5406 11.0274 28.6529Z" fill="#7572D5"/>
<path d="M21.0001 15.4347C20.1618 15.4154 19.3369 15.6497 18.6305 16.1077C17.9242 16.5657 17.3685 17.2267 17.0344 18.0062C16.7003 18.7857 16.603 19.6485 16.7548 20.4843C16.9066 21.3202 17.3007 22.0912 17.8867 22.6991C18.4728 23.3069 19.2243 23.724 20.0452 23.897C20.8662 24.0701 21.7194 23.9912 22.4959 23.6706C23.2725 23.35 23.9372 22.8021 24.4052 22.0969C24.8731 21.3917 25.1232 20.5611 25.1234 19.7112C25.1237 18.5937 24.6924 17.5204 23.9217 16.7211C23.1511 15.9219 22.1024 15.4601 21.0001 15.4347Z" fill="#7572D5"/>
</g>

<path id='tps' d="M0 19V38H39V0H0V19ZM31.4291 17.4863C32.4204 17.727 33.1744 18.1561 33.8682 18.8559C34.2274 19.2296 34.7604 19.9104 34.8026 20.0751C34.8156 20.1226 33.1191 21.2309 32.0921 21.8532C32.0548 21.8769 31.9052 21.7202 31.7395 21.4795C31.2358 20.767 30.7109 20.4598 29.9065 20.406C28.7235 20.3268 27.963 20.9301 27.9695 21.9371C27.9587 22.1847 28.0159 22.4307 28.1352 22.6496C28.3952 23.1737 28.8795 23.4888 30.394 24.1268C33.1874 25.2985 34.3817 26.0696 35.1244 27.1668C35.9531 28.3908 36.14 30.3462 35.5761 31.7997C34.9586 33.3798 33.423 34.4533 31.2618 34.808C30.5939 34.9236 29.0095 34.9062 28.2913 34.7795C26.7248 34.5072 25.2395 33.7535 24.323 32.7639C23.9639 32.3792 23.2635 31.3706 23.3074 31.2993C23.3253 31.274 23.4861 31.1774 23.6649 31.0761C23.8404 30.9795 24.4953 30.6106 25.1144 30.2607L26.2356 29.6273L26.4713 29.9662C26.7995 30.4538 27.5161 31.1236 27.95 31.3468C29.1948 31.9865 30.9026 31.8963 31.7444 31.16C31.9136 31.0211 32.0476 30.8459 32.1359 30.6481C32.2241 30.4503 32.2642 30.2354 32.253 30.02C32.253 29.5798 32.1961 29.3867 31.9605 29.0542C31.6582 28.633 31.0391 28.2783 29.2809 27.5342C27.2691 26.6903 26.403 26.1662 25.61 25.3333C25.1151 24.7837 24.7495 24.1352 24.5391 23.4333C24.3913 22.8966 24.3539 21.5508 24.4709 21.0093C24.8853 19.114 26.3526 17.7951 28.47 17.4024C29.1574 17.2758 30.7547 17.3232 31.4291 17.4863ZM22.2739 19.0728L22.2869 20.6293H17.2087V34.6829H13.6175V20.6293H8.54425V19.1029C8.54425 18.2574 8.56213 17.5513 8.5865 17.5354C8.606 17.5101 11.6951 17.4974 15.4391 17.5038L22.256 17.5228L22.2739 19.0728Z" fill="#7572D5"/>

<!-- contacts -->

<path id='youtube' d="M17.8945 3.4873C17.9648 4.75293 18 6.00684 18 7.24902C18 8.49121 17.9648 9.74512 17.8945 11.0107C17.8945 11.8076 17.6367 12.4873 17.1211 13.0498C16.6289 13.5889 16.0195 13.8584 15.293 13.8584C13.4883 13.9521 11.3906 13.999 9 13.999C6.60938 13.999 4.51172 13.9521 2.70703 13.8584C1.98047 13.8584 1.35938 13.5889 0.84375 13.0498C0.351562 12.4873 0.105469 11.8076 0.105469 11.0107C0.0351562 9.74512 0 8.49121 0 7.24902C0 6.42871 0.046875 5.1748 0.140625 3.4873C0.140625 2.69043 0.386719 2.02246 0.878906 1.4834C1.37109 0.920898 1.98047 0.639648 2.70703 0.639648C4.41797 0.545898 6.41016 0.499023 8.68359 0.499023H9H9.31641C11.5898 0.499023 13.582 0.545898 15.293 0.639648C16.0195 0.639648 16.6289 0.920898 17.1211 1.4834C17.6367 2.02246 17.8945 2.69043 17.8945 3.4873ZM7.27734 10.6943L12.375 7.24902L7.27734 3.76855V10.6943Z" fill="#8C8C8C"/>

<path id='twitter' d="M16.5938 2.11621C16.1719 2.77246 15.6094 3.3584 14.9062 3.87402V4.2959C14.9062 6.75684 14.0156 8.99512 12.2344 11.0107C10.4766 13.0029 8.13281 13.999 5.20312 13.999C3.32812 13.999 1.59375 13.4834 0 12.4521C0.375 12.499 0.644531 12.5225 0.808594 12.5225C2.37891 12.5225 3.78516 12.0303 5.02734 11.0459C4.30078 11.0225 3.64453 10.7998 3.05859 10.3779C2.47266 9.93262 2.07422 9.37012 1.86328 8.69043C2.14453 8.7373 2.35547 8.76074 2.49609 8.76074C2.73047 8.76074 3.03516 8.71387 3.41016 8.62012C2.63672 8.45605 1.98047 8.06934 1.44141 7.45996C0.925781 6.82715 0.667969 6.10059 0.667969 5.28027V5.24512C1.18359 5.52637 1.69922 5.66699 2.21484 5.66699C1.20703 5.01074 0.703125 4.06152 0.703125 2.81934C0.703125 2.2334 0.855469 1.6709 1.16016 1.13184C2.96484 3.3584 5.29688 4.54199 8.15625 4.68262C8.10938 4.51855 8.08594 4.26074 8.08594 3.90918C8.08594 2.94824 8.41406 2.13965 9.07031 1.4834C9.72656 0.827148 10.5352 0.499023 11.4961 0.499023C12.457 0.499023 13.2773 0.862305 13.957 1.58887C14.6602 1.47168 15.3867 1.19043 16.1367 0.745117C15.9023 1.56543 15.3984 2.19824 14.625 2.64355C15.3516 2.57324 16.0078 2.39746 16.5938 2.11621Z" fill="#8C8C8C"/>

<path id='facebook' d="M4.5 4.99902H6.75L6.46875 7.24902H4.5V13.999H1.58203V7.24902H0V4.99902H1.58203V3.4873C1.58203 2.50293 1.82812 1.76465 2.32031 1.27246C2.8125 0.756836 3.63281 0.499023 4.78125 0.499023H6.75V2.74902H5.55469C5.10938 2.74902 4.81641 2.81934 4.67578 2.95996C4.55859 3.10059 4.5 3.33496 4.5 3.66309V4.99902Z" fill="#8C8C8C"/>

<path id='lkdin' d="M12.4102 0.499023C12.7148 0.499023 12.9727 0.604492 13.1836 0.81543C13.3945 1.00293 13.5 1.24902 13.5 1.55371V12.8389C13.5 13.1436 13.3945 13.4131 13.1836 13.6475C12.9727 13.8818 12.7148 13.999 12.4102 13.999H1.16016C0.855469 13.999 0.585938 13.8818 0.351562 13.6475C0.117188 13.4131 0 13.1436 0 12.8389V1.55371C0 1.24902 0.105469 1.00293 0.316406 0.81543C0.550781 0.604492 0.832031 0.499023 1.16016 0.499023H12.4102ZM4.18359 11.749V5.7373H2.25V11.749H4.18359ZM2.53125 4.54199C2.71875 4.72949 2.96484 4.82324 3.26953 4.82324C3.57422 4.82324 3.82031 4.72949 4.00781 4.54199C4.21875 4.33105 4.32422 4.08496 4.32422 3.80371C4.32422 3.49902 4.23047 3.25293 4.04297 3.06543C3.85547 2.85449 3.60938 2.74902 3.30469 2.74902C3 2.74902 2.74219 2.85449 2.53125 3.06543C2.34375 3.25293 2.25 3.49902 2.25 3.80371C2.25 4.08496 2.34375 4.33105 2.53125 4.54199ZM11.25 11.749V8.2334C11.25 7.36621 11.0391 6.70996 10.6172 6.26465C10.2188 5.81934 9.69141 5.59668 9.03516 5.59668C8.33203 5.59668 7.74609 5.9248 7.27734 6.58105V5.7373H5.34375V11.749H7.27734V8.33887C7.27734 8.10449 7.30078 7.94043 7.34766 7.84668C7.53516 7.37793 7.86328 7.14355 8.33203 7.14355C8.98828 7.14355 9.31641 7.57715 9.31641 8.44434V11.749H11.25Z" fill="#8C8C8C"/>

</svg>