<svg width="50" height="50" viewBox="0 0 50 50" fill="none" xmlns="http://www.w3.org/2000/svg">

    <!-- skills -->

    <path id='css'
          d="M0 0.375L3.32031 39.0469L18.75 44.125L34.082 39.0469L37.5 0.375H0ZM30.5664 8.1875L30.0781 12.875L18.8477 17.6602H18.75H29.6875L28.418 32.0156L18.8477 34.75L9.17969 31.918L8.59375 24.6914H13.2812L13.6719 28.5L18.75 29.7695L24.1211 28.3047L24.5117 22.25L8.20312 22.1523L7.91016 17.6602L18.8477 13.0703L19.4336 12.875H7.42188L6.83594 8.1875H30.5664Z"
          fill="#000"/>

    <path id='html'
          d="M0 0.375L3.32031 39.0469L18.6523 44.125L34.082 39.0469L37.5 0.375H0ZM30.0781 12.875H12.1094L12.5 17.7578H29.6875L28.3203 32.2109L18.75 34.8477H18.6523L8.98438 32.2109L8.39844 24.7891H13.0859L13.4766 28.5L18.6523 29.9648L23.9258 28.5L24.5117 22.4453H8.20312L6.93359 8.28516H30.4688L30.0781 12.875Z"
          fill="#000"/>

    <path id="js"
          d="M0 0.375V44.125H43.75V0.375H0ZM23.7305 34.5547C23.7305 38.7539 21.2891 40.707 17.5781 40.707C14.3555 40.707 12.4023 39.0469 11.4258 36.9961L14.8438 34.9453C15.4297 36.1172 16.0156 37.0938 17.4805 37.0938C18.75 37.0938 19.6289 36.5078 19.6289 34.457V20.4922H23.7305V34.5547ZM33.4961 40.707C29.6875 40.707 27.2461 38.9492 25.9766 36.5078L29.3945 34.6523C30.2734 36.0195 31.3477 37.0938 33.3984 37.0938C35.0586 37.0938 36.2305 36.2148 36.2305 35.043C36.2305 33.6758 35.0586 33.1875 33.2031 32.3086L32.1289 31.918C29.1992 30.6484 27.2461 29.0859 27.2461 25.668C27.2461 22.6406 29.5898 20.2969 33.3008 20.2969C35.8398 20.2969 37.793 21.1758 39.0625 23.5195L35.9375 25.5703C35.1562 24.3984 34.4727 23.8125 33.2031 23.8125C32.0312 23.8125 31.25 24.5938 31.25 25.5703C31.25 26.8398 32.0312 27.3281 33.7891 28.1094L34.8633 28.5977C38.3789 30.0625 40.332 31.625 40.332 35.043C40.332 38.7539 37.4023 40.707 33.4961 40.707Z"
          fill="#000"/>

    <g>
        <path id="bootstrap"
              d="M28.5156 27.7188C28.5156 26.9375 28.3203 23.8125 24.2188 23.8125H16.3086V31.8203H24.2188C24.6094 31.8203 28.5156 31.918 28.5156 27.7188ZM23.6328 20.5898C23.6328 20.5898 27.3438 20.6875 27.3438 17.0742C27.3438 15.5117 27.0508 13.5586 23.6328 13.5586H16.3086V20.5898H23.6328ZM43.75 7.69922C43.6523 3.69531 40.4297 0.472656 36.4258 0.375H7.22656C3.22266 0.472656 0 3.69531 0 7.69922V36.8984C0 40.9023 3.22266 44.125 7.22656 44.125H36.4258C40.4297 44.125 43.6523 40.9023 43.75 36.8984V7.69922ZM33.0078 28.3047C33.0078 33.0898 29.1992 34.457 27.832 34.8477C25.4883 35.6289 24.3164 35.4336 11.8164 35.4336V9.94531H24.2188C32.0312 9.94531 31.8359 15.6094 31.8359 16.293C31.8359 18.9297 30.3711 20.6875 28.2227 21.6641V21.7617C32.3242 22.6406 33.0078 26.2539 33.0078 28.3047Z"
              fill="#000"/>

    </g>


    <g id='react'>
        <path d="M40.8203 14.6328C40.2344 14.4375 39.7461 14.2422 39.2578 14.1445C39.2578 13.7539 39.3555 13.3633 39.4531 12.9727C40.625 7.21094 39.8438 2.52344 37.207 0.960938C34.668 -0.503906 30.4688 1.05859 26.1719 4.76953C25.7812 5.0625 25.3906 5.45312 25 5.84375C24.707 5.55078 24.4141 5.35547 24.2188 5.0625C19.7266 1.15625 15.2344 -0.503906 12.5977 1.05859C10.0586 2.52344 9.27734 6.91797 10.3516 12.4844C10.4492 12.9727 10.5469 13.5586 10.7422 14.0469C10.0586 14.2422 9.47266 14.4375 8.88672 14.6328C3.71094 16.4883 0 19.3203 0 22.25C0 25.2773 3.90625 28.4023 9.375 30.2578C9.76562 30.3555 10.2539 30.5508 10.6445 30.6484C10.5469 31.2344 10.4492 31.8203 10.2539 32.4062C9.27734 37.7773 10.0586 42.0742 12.5977 43.5391C15.2344 45.1016 19.7266 43.5391 24.0234 39.7305C24.3164 39.4375 24.707 39.1445 25 38.8516C25.4883 39.2422 25.8789 39.6328 26.3672 40.0234C30.5664 43.6367 34.668 45.1016 37.207 43.6367C39.8438 42.0742 40.7227 37.4844 39.6484 31.8203C39.5508 31.4297 39.4531 30.9414 39.3555 30.5508C39.6484 30.4531 39.9414 30.3555 40.2344 30.2578C45.8984 28.4023 50 25.375 50 22.25C50 19.3203 46.0938 16.3906 40.8203 14.6328ZM27.5391 6.33203C31.25 3.10938 34.5703 1.9375 36.1328 2.81641C37.793 3.69531 38.4766 7.60156 37.4023 12.582C37.3047 12.9727 37.3047 13.2656 37.207 13.5586C34.9609 13.0703 32.8125 12.7773 30.5664 12.582C29.2969 10.7266 27.9297 8.96875 26.4648 7.30859C26.8555 7.01562 27.1484 6.625 27.5391 6.33203ZM16.3086 27.3281C16.7969 28.207 17.2852 28.9883 17.8711 29.8672C16.3086 29.6719 14.7461 29.4766 13.2812 29.0859C13.7695 27.7188 14.2578 26.2539 14.8438 24.7891C15.332 25.668 15.8203 26.4492 16.3086 27.3281ZM13.2812 15.6094C14.7461 15.2188 16.2109 15.0234 17.7734 14.8281C17.2852 15.6094 16.7969 16.4883 16.3086 17.2695C15.8203 18.1484 15.332 18.9297 14.8438 19.8086C14.2578 18.3438 13.7695 16.9766 13.2812 15.6094ZM16.0156 22.3477C16.6016 20.9805 17.3828 19.6133 18.0664 18.3438C18.8477 17.0742 19.6289 15.8047 20.5078 14.5352C21.9727 14.4375 23.4375 14.3398 25 14.3398C26.4648 14.3398 28.0273 14.4375 29.3945 14.5352C30.2734 15.8047 31.0547 17.0742 31.8359 18.3438C32.5195 19.6133 33.3008 20.8828 33.8867 22.25C33.3008 23.6172 32.6172 24.9844 31.8359 26.2539C31.0547 27.5234 30.2734 28.793 29.4922 30.0625C28.0273 30.1602 26.4648 30.2578 25 30.2578C23.4375 30.2578 21.9727 30.1602 20.5078 30.0625C19.6289 28.793 18.8477 27.5234 18.0664 26.2539C17.3828 24.9844 16.6992 23.6172 16.0156 22.3477ZM33.5938 27.3281C34.1797 26.4492 34.5703 25.5703 35.0586 24.6914C35.6445 26.1562 36.2305 27.5234 36.7188 28.9883C35.1562 29.3789 33.6914 29.6719 32.1289 29.7695C32.6172 28.9883 33.1055 28.1094 33.5938 27.3281ZM35.0586 19.8086C34.5703 18.9297 34.082 18.1484 33.5938 17.2695C33.1055 16.4883 32.6172 15.6094 32.1289 14.8281C33.6914 15.0234 35.2539 15.3164 36.6211 15.6094C36.1328 17.0742 35.6445 18.4414 35.0586 19.8086ZM25 8.87109C25.9766 9.94531 26.9531 11.1172 27.832 12.3867C25.9766 12.2891 24.0234 12.2891 22.0703 12.3867C23.0469 11.1172 24.0234 9.94531 25 8.87109ZM13.6719 2.81641C15.332 1.9375 18.9453 3.30469 22.7539 6.625C23.0469 6.91797 23.2422 7.11328 23.5352 7.30859C21.9727 8.96875 20.6055 10.7266 19.3359 12.582C17.0898 12.7773 14.9414 13.0703 12.793 13.5586C12.5977 13.0703 12.5 12.582 12.4023 11.9961C11.5234 7.30859 12.1094 3.79297 13.6719 2.81641ZM11.2305 28.5977C10.8398 28.5 10.4492 28.4023 10.0586 28.207C8.00781 27.5234 5.56641 26.5469 3.90625 25.1797C2.92969 24.4961 2.24609 23.4219 2.05078 22.25C2.05078 20.4922 5.17578 18.1484 9.57031 16.5859C10.1562 16.3906 10.7422 16.293 11.3281 16.0977C11.9141 18.2461 12.793 20.2969 13.6719 22.3477C12.6953 24.3008 11.9141 26.4492 11.2305 28.5977ZM22.6562 38.168C20.9961 39.6328 19.1406 40.8047 17.0898 41.5859C16.0156 42.1719 14.8438 42.1719 13.6719 41.7812C12.1094 40.8047 11.5234 37.3867 12.4023 32.7969C12.5 32.2109 12.5977 31.625 12.6953 31.1367C14.9414 31.625 17.0898 31.918 19.3359 32.1133C20.6055 33.8711 22.0703 35.6289 23.5352 37.2891C23.2422 37.582 22.9492 37.875 22.6562 38.168ZM25 35.8242C24.0234 34.75 23.0469 33.5781 22.0703 32.2109C23.0469 32.3086 24.0234 32.3086 25 32.3086C25.9766 32.3086 26.9531 32.3086 27.9297 32.2109C27.0508 33.4805 26.0742 34.6523 25 35.8242ZM37.793 38.7539C37.6953 39.9258 37.1094 41 36.2305 41.7812C34.668 42.6602 31.3477 41.4883 27.7344 38.4609C27.3438 38.0703 26.9531 37.6797 26.4648 37.2891C28.0273 35.6289 29.3945 33.9688 30.6641 32.1133C32.9102 31.918 35.0586 31.5273 37.3047 31.0391C37.4023 31.4297 37.5 31.8203 37.5977 32.2109C37.9883 34.3594 38.0859 36.6055 37.793 38.7539ZM39.5508 28.207C39.2578 28.3047 39.0625 28.4023 38.7695 28.5C38.0859 26.3516 37.207 24.3008 36.2305 22.25C37.207 20.2969 37.9883 18.2461 38.6719 16.0977C39.1602 16.293 39.6484 16.3906 40.1367 16.5859C44.6289 18.1484 47.8516 20.4922 47.8516 22.25C47.8516 24.1055 44.4336 26.6445 39.5508 28.207ZM25 26.7422C27.4414 26.7422 29.3945 24.7891 29.3945 22.25C29.3945 19.8086 27.4414 17.8555 25 17.8555C22.4609 17.8555 20.5078 19.8086 20.5078 22.25C20.5078 24.7891 22.4609 26.7422 25 26.7422Z"
              fill="#000"/>
    </g>

    <path id="sass"
          d="M30.3945 36.2617C30.3945 36.3594 30.3945 36.3594 30.3945 36.2617V36.2617ZM54.7109 27.7656C52.7578 27.7656 50.8047 28.2539 49.0469 29.1328C48.5586 27.9609 47.875 26.9844 47.7773 26.2031C47.6797 25.3242 47.582 24.7383 47.6797 23.7617C47.875 22.6875 48.4609 21.125 48.4609 21.0273C48.4609 20.9297 48.3633 20.4414 47.0938 20.4414C45.8242 20.4414 44.75 20.6367 44.5547 21.0273C44.3594 21.6133 44.1641 22.1992 44.0664 22.8828C43.8711 23.957 41.5273 28.0586 40.2578 30.207C39.8672 29.3281 39.4766 28.6445 39.3789 28.0586C39.2812 27.1797 39.1836 26.5938 39.2812 25.6172C39.3789 24.543 40.0625 23.0781 40.0625 22.8828C39.9648 22.7852 39.8672 22.2969 38.5977 22.2969C37.3281 22.2969 36.2539 22.4922 36.1562 22.8828C36.0586 23.1758 35.8633 23.957 35.668 24.7383C35.375 25.4219 32.3477 32.2578 31.5664 34.0156C31.0781 34.8945 30.7852 35.6758 30.4922 36.1641C30.4922 36.2617 30.4922 36.2617 30.3945 36.2617C30.4922 36.2617 30.4922 36.1641 30.4922 36.2617C30.2969 36.6523 30.1016 36.8477 30.1016 36.8477C30.0039 37.2383 29.8086 37.5312 29.7109 37.5312C29.6133 37.5312 29.5156 36.6523 29.7109 35.5781C30.1992 33.1367 31.2734 29.5234 31.2734 29.4258C31.2734 29.3281 31.4688 28.6445 30.5898 28.3516C29.6133 28.0586 29.3203 28.5469 29.2227 28.5469L29.125 28.7422C29.125 28.7422 30.1016 24.6406 27.2695 24.6406C25.4141 24.6406 22.9727 26.5938 21.7031 28.3516C20.9219 28.7422 19.2617 29.7188 17.5039 30.6953C16.8203 30.9883 16.1367 31.3789 15.4531 31.7695L15.3555 31.6719C11.8398 27.8633 5.39453 25.2266 5.6875 20.2461C5.78516 18.3906 6.37109 13.6055 18.0898 7.84375C27.6602 3.05859 35.2773 4.32812 36.6445 7.25781C38.5 11.457 32.543 19.1719 22.582 20.2461C18.7734 20.6367 16.8203 19.1719 16.332 18.6836C15.7461 18.0977 15.7461 18.0977 15.5508 18.1953C15.1602 18.293 15.3555 18.8789 15.5508 19.1719C15.8438 19.9531 17.0156 21.3203 19.0664 22.0039C20.9219 22.5898 25.4141 22.8828 30.7852 20.832C36.7422 18.4883 41.4297 12.043 40.0625 6.57422C38.6953 1.10547 29.6133 -0.75 20.9219 2.375C15.7461 4.13281 10.1797 7.0625 6.17578 10.7734C1.48828 15.2656 0.707031 19.0742 1 20.7344C2.17188 26.4961 10.082 30.207 13.207 33.0391C13.1094 33.1367 12.9141 33.1367 12.8164 33.2344C11.1562 34.0156 5.19922 37.2383 3.63672 40.5586C1.97656 44.3672 3.92969 47.1016 5.19922 47.3945C9.30078 48.5664 13.5 46.5156 15.7461 43.1953C17.9922 39.7773 17.6992 35.4805 16.625 33.4297C16.625 33.4297 16.625 33.4297 16.625 33.332C17.0156 33.1367 17.5039 32.8438 17.8945 32.6484C18.6758 32.1602 19.457 31.7695 20.1406 31.3789C19.75 32.3555 19.457 33.625 19.3594 35.4805C19.1641 37.6289 20.043 40.4609 21.2148 41.5352C21.7031 42.0234 22.3867 42.0234 22.6797 42.0234C24.0469 42.0234 24.6328 40.9492 25.3164 39.582C26.1953 37.9219 26.8789 36.0664 26.8789 36.0664C26.8789 36.0664 26 41.1445 28.5391 41.1445C29.418 41.1445 30.2969 39.9727 30.7852 39.3867C30.7852 39.3867 30.7852 39.3867 30.7852 39.2891C30.8828 39.0938 30.9805 38.9961 30.9805 38.9961C31.3711 38.4102 32.1523 36.9453 33.3242 34.5039C34.9844 31.3789 36.4492 27.5703 36.4492 27.5703C36.6445 28.3516 36.8398 29.2305 37.0352 30.0117C37.3281 30.9883 37.9141 31.9648 38.4023 32.9414C38.0117 33.5273 37.8164 33.8203 37.8164 33.8203C37.5234 34.2109 37.1328 34.6016 36.8398 34.9922C35.5703 36.5547 34.1055 38.2148 33.9102 38.7031C33.6172 39.2891 33.7148 39.6797 34.2031 40.0703C34.4961 40.2656 35.082 40.3633 35.668 40.2656C36.8398 40.168 37.6211 39.9727 38.0117 39.7773C38.6953 39.4844 39.3789 39.1914 39.9648 38.7031C41.2344 37.8242 41.918 36.5547 41.8203 34.7969C41.8203 33.918 41.5273 32.9414 41.1367 32.0625C41.2344 31.9648 41.332 31.7695 41.5273 31.5742C43.3828 28.7422 44.9453 25.6172 44.9453 25.6172C45.043 26.4961 45.2383 27.375 45.5312 28.1562C45.7266 28.9375 46.2148 29.8164 46.6055 30.6953C44.8477 32.1602 43.6758 33.918 43.2852 34.9922C42.6016 37.043 43.1875 38.0195 44.1641 38.2148C44.6523 38.3125 45.3359 38.1172 45.9219 37.9219C46.6055 37.6289 47.3867 37.2383 47.9727 36.8477C49.2422 35.8711 50.4141 34.6016 50.3164 32.9414C50.3164 32.1602 50.0234 31.3789 49.7305 30.6953C51.293 30.0117 53.3438 29.6211 55.8828 29.9141C61.2539 30.5977 62.3281 34.0156 62.1328 35.3828C61.9375 36.8477 60.7656 37.6289 60.375 37.8242C59.9844 38.1172 59.8867 38.1172 59.9844 38.3125C59.9844 38.6055 60.1797 38.6055 60.4727 38.5078C60.9609 38.4102 63.3047 37.3359 63.4023 34.6992C63.5977 31.3789 60.375 27.7656 54.7109 27.7656ZM12.8164 41.9258C11.0586 43.8789 8.51953 44.6602 7.44531 43.9766C6.27344 43.293 6.76172 40.4609 9.00781 38.3125C10.2773 37.043 12.0352 35.8711 13.207 35.1875C13.5 34.9922 13.793 34.7969 14.2812 34.5039C14.3789 34.5039 14.3789 34.4062 14.3789 34.4062C14.4766 34.4062 14.5742 34.3086 14.6719 34.3086C15.5508 37.2383 14.7695 39.875 12.8164 41.9258ZM26 33.0391C25.3164 34.5039 24.0469 38.4102 23.2656 38.2148C22.582 38.1172 22.0938 35.0898 23.0703 32.1602C23.5586 30.6953 24.6328 28.9375 25.2188 28.2539C26.1953 27.1797 27.2695 26.7891 27.5625 27.2773C27.8555 27.7656 26.3906 32.0625 26 33.0391ZM36.8398 38.2148C36.5469 38.3125 36.2539 38.4102 36.1562 38.3125C36.0586 38.3125 36.2539 38.1172 36.2539 38.1172C36.2539 38.1172 37.6211 36.6523 38.207 35.9688C38.5 35.5781 38.8906 35.1875 39.2812 34.6016C39.2812 34.6992 39.2812 34.6992 39.2812 34.7969C39.2812 36.5547 37.5234 37.7266 36.8398 38.2148ZM45.1406 36.2617C44.9453 36.1641 45.043 35.6758 45.6289 34.3086C45.9219 33.7227 46.5078 32.7461 47.4844 31.8672C47.582 32.1602 47.6797 32.5508 47.6797 32.9414C47.6797 35.0898 46.1172 35.9688 45.1406 36.2617Z"
          fill="#000"/>

    <path id="less"
          d="M59.7656 10.6367C59.7656 8.68359 60.0586 7.51172 60.0586 5.36328C60.0586 2.04297 58.8867 0.96875 56.1523 0.96875H54.1016V3.3125H54.7852C56.1523 3.3125 56.4453 3.80078 56.4453 5.46094C56.4453 7.02344 56.25 8.68359 56.25 10.4414C56.25 12.8828 57.0312 13.7617 58.5938 14.1523V14.25C57.0312 14.6406 56.25 15.5195 56.25 17.9609C56.25 19.8164 56.4453 21.2812 56.4453 22.9414C56.4453 24.6992 56.0547 25.1875 54.7852 25.1875H54.1016V27.6289H56.1523C58.8867 27.6289 60.0586 26.5547 60.0586 23.2344C60.0586 21.0859 59.7656 19.9141 59.7656 17.9609C59.7656 16.8867 60.4492 15.7148 62.5 15.6172V12.9805C60.4492 12.8828 59.7656 11.7109 59.7656 10.6367ZM49.5117 13.7617C47.9492 13.1758 46.4844 12.7852 46.4844 11.8086C46.4844 11.0273 47.0703 10.5391 48.2422 10.5391C49.4141 10.5391 50.3906 11.0273 51.5625 11.8086L53.6133 9.17188C52.3438 8.19531 50.5859 7.12109 48.1445 7.12109C44.7266 7.12109 42.3828 9.17188 42.3828 12.0039C42.3828 14.4453 44.5312 15.7148 46.3867 16.4961C47.9492 17.082 49.5117 17.5703 49.5117 18.6445C49.5117 19.4258 48.9258 19.9141 47.5586 19.9141C46.2891 19.9141 44.9219 19.4258 43.5547 18.3516L41.5039 21.2812C43.0664 22.5508 45.4102 23.4297 47.3633 23.4297C51.4648 23.4297 53.7109 21.2812 53.7109 18.4492C53.7109 15.6172 51.4648 14.4453 49.5117 13.7617ZM14.4531 19.6211C14.0625 19.6211 13.5742 19.3281 13.5742 18.3516V0.96875H6.34766C3.51562 0.96875 2.34375 2.04297 2.34375 5.36328C2.34375 7.51172 2.63672 8.78125 2.63672 10.6367C2.63672 11.7109 1.95312 12.8828 0 12.9805V15.6172C1.95312 15.7148 2.63672 16.7891 2.63672 17.8633C2.63672 19.8164 2.34375 20.8906 2.34375 23.1367C2.34375 26.457 3.51562 27.5312 6.25 27.5312H8.30078V25.1875H7.61719C6.34766 25.1875 5.95703 24.6992 5.95703 22.9414C5.95703 21.2812 6.15234 19.8164 6.15234 17.9609C6.15234 15.6172 5.37109 14.6406 3.80859 14.3477V14.1523C5.37109 13.7617 6.15234 12.8828 6.15234 10.5391C6.15234 8.68359 5.95703 7.12109 5.95703 5.46094C5.95703 3.80078 6.34766 3.3125 7.61719 3.3125H9.08203V18.0586C9.08203 21.1836 10.1562 23.2344 13.2812 23.2344C14.2578 23.2344 15.0391 23.0391 15.5273 22.8438L15.0391 19.5234C14.7461 19.6211 14.5508 19.6211 14.4531 19.6211ZM37.0117 13.7617C35.4492 13.1758 33.9844 12.7852 33.9844 11.8086C33.9844 11.0273 34.668 10.5391 35.7422 10.5391C36.9141 10.5391 37.8906 11.0273 39.0625 11.8086L41.1133 9.17188C39.8438 8.19531 38.0859 7.12109 35.7422 7.12109C32.2266 7.12109 29.8828 9.17188 29.8828 12.0039C29.8828 14.4453 32.0312 15.7148 33.8867 16.4961C35.5469 17.082 37.0117 17.5703 37.0117 18.6445C37.0117 19.4258 36.4258 19.9141 35.0586 19.9141C33.7891 19.9141 32.5195 19.4258 31.0547 18.3516L29.1016 21.2812C30.6641 22.5508 33.0078 23.4297 34.9609 23.4297C39.0625 23.4297 41.2109 21.2812 41.2109 18.4492C41.3086 15.6172 39.0625 14.4453 37.0117 13.7617ZM21.875 7.12109C18.1641 7.12109 14.5508 10.2461 14.6484 15.1289C14.6484 20.207 18.0664 23.2344 22.4609 23.2344C24.3164 23.2344 26.3672 22.5508 27.9297 21.4766L26.3672 18.7422C25.1953 19.4258 24.1211 19.7188 23.0469 19.7188C20.9961 19.7188 19.4336 18.7422 18.9453 16.3984H28.3203C28.3203 16.0078 28.418 15.3242 28.418 14.4453C28.5156 10.3438 26.2695 7.12109 21.875 7.12109ZM18.9453 13.5664C19.3359 11.5156 20.5078 10.5391 21.9727 10.5391C23.8281 10.5391 24.5117 11.8086 24.5117 13.5664H18.9453Z"
          fill="#000"/>

    <path id="git"
          d="M21.0938 10.7773H13.3789C9.47266 9.70312 0.585938 9.99609 0.585938 18.1016C0.585938 21.0312 2.05078 23.082 4.00391 24.0586C1.5625 26.3047 0.390625 27.3789 0.390625 28.8438C0.390625 29.918 0.78125 30.8945 2.14844 31.4805C0.78125 32.75 0 33.7266 0 35.4844C0 38.6094 2.73438 40.4648 9.86328 40.4648C16.7969 40.4648 20.8008 37.9258 20.8008 33.3359C20.8008 27.5742 16.4062 27.7695 5.95703 27.1836L7.32422 25.0352C9.96094 25.8164 18.8477 26.0117 18.8477 18.3945C18.8477 16.6367 18.1641 15.3672 17.3828 14.3906L21.0938 14.0977V10.7773ZM14.8438 34.4102C14.8438 37.5352 4.58984 37.5352 4.58984 34.6055C4.58984 33.8242 5.17578 33.1406 5.66406 32.5547C13.2812 33.043 14.8438 32.8477 14.8438 34.4102ZM9.96094 21.2266C4.78516 21.2266 4.98047 14.293 10.0586 14.293C14.8438 14.293 15.0391 21.2266 9.96094 21.2266ZM22.9492 31.0898H34.2773V27.9648L32.2266 27.6719C31.6406 27.5742 31.6406 27.4766 31.6406 26.8906V10.3867H23.3398L22.9492 13.6094C25.3906 14.4883 25.5859 14.3906 25.5859 15.1719V26.8906C25.5859 27.7695 25.5859 27.5742 22.9492 27.9648V31.0898ZM28.0273 7.16406C30.3711 7.16406 31.6406 5.89453 31.6406 3.64844C31.6406 1.40234 30.3711 0.132812 28.0273 0.132812C25.7812 0.132812 24.5117 1.40234 24.5117 3.64844C24.5117 5.89453 25.7812 7.16406 28.0273 7.16406ZM50 29.5273L48.9258 26.0117C42.4805 28.4531 42.9688 24.0586 42.9688 23.375V13.9023H48.9258V9.99609H43.2617C42.8711 9.99609 42.9688 10.3867 42.9688 3.94141H39.1602C38.7695 8.23828 37.4023 9.99609 33.8867 10.3867V13.9023C37.1094 13.9023 37.0117 13.8047 37.0117 14.293V24.7422C37.0117 29.2344 38.7695 31.0898 43.457 31.0898C45.7031 31.0898 48.2422 30.3086 50 29.5273Z"
          fill="#000"/>


    <path id='tps'
          d="M0 19V38H39V0H0V19ZM31.4291 17.4863C32.4204 17.727 33.1744 18.1561 33.8682 18.8559C34.2274 19.2296 34.7604 19.9104 34.8026 20.0751C34.8156 20.1226 33.1191 21.2309 32.0921 21.8532C32.0548 21.8769 31.9052 21.7202 31.7395 21.4795C31.2358 20.767 30.7109 20.4598 29.9065 20.406C28.7235 20.3268 27.963 20.9301 27.9695 21.9371C27.9587 22.1847 28.0159 22.4307 28.1352 22.6496C28.3952 23.1737 28.8795 23.4888 30.394 24.1268C33.1874 25.2985 34.3817 26.0696 35.1244 27.1668C35.9531 28.3908 36.14 30.3462 35.5761 31.7997C34.9586 33.3798 33.423 34.4533 31.2618 34.808C30.5939 34.9236 29.0095 34.9062 28.2913 34.7795C26.7248 34.5072 25.2395 33.7535 24.323 32.7639C23.9639 32.3792 23.2635 31.3706 23.3074 31.2993C23.3253 31.274 23.4861 31.1774 23.6649 31.0761C23.8404 30.9795 24.4953 30.6106 25.1144 30.2607L26.2356 29.6273L26.4713 29.9662C26.7995 30.4538 27.5161 31.1236 27.95 31.3468C29.1948 31.9865 30.9026 31.8963 31.7444 31.16C31.9136 31.0211 32.0476 30.8459 32.1359 30.6481C32.2241 30.4503 32.2642 30.2354 32.253 30.02C32.253 29.5798 32.1961 29.3867 31.9605 29.0542C31.6582 28.633 31.0391 28.2783 29.2809 27.5342C27.2691 26.6903 26.403 26.1662 25.61 25.3333C25.1151 24.7837 24.7495 24.1352 24.5391 23.4333C24.3913 22.8966 24.3539 21.5508 24.4709 21.0093C24.8853 19.114 26.3526 17.7951 28.47 17.4024C29.1574 17.2758 30.7547 17.3232 31.4291 17.4863ZM22.2739 19.0728L22.2869 20.6293H17.2087V34.6829H13.6175V20.6293H8.54425V19.1029C8.54425 18.2574 8.56213 17.5513 8.5865 17.5354C8.606 17.5101 11.6951 17.4974 15.4391 17.5038L22.256 17.5228L22.2739 19.0728Z"
          fill="#7572D5"/>


    <!-- contacts -->

    <path id='youtube'
          d="M17.8945 3.4873C17.9648 4.75293 18 6.00684 18 7.24902C18 8.49121 17.9648 9.74512 17.8945 11.0107C17.8945 11.8076 17.6367 12.4873 17.1211 13.0498C16.6289 13.5889 16.0195 13.8584 15.293 13.8584C13.4883 13.9521 11.3906 13.999 9 13.999C6.60938 13.999 4.51172 13.9521 2.70703 13.8584C1.98047 13.8584 1.35938 13.5889 0.84375 13.0498C0.351562 12.4873 0.105469 11.8076 0.105469 11.0107C0.0351562 9.74512 0 8.49121 0 7.24902C0 6.42871 0.046875 5.1748 0.140625 3.4873C0.140625 2.69043 0.386719 2.02246 0.878906 1.4834C1.37109 0.920898 1.98047 0.639648 2.70703 0.639648C4.41797 0.545898 6.41016 0.499023 8.68359 0.499023H9H9.31641C11.5898 0.499023 13.582 0.545898 15.293 0.639648C16.0195 0.639648 16.6289 0.920898 17.1211 1.4834C17.6367 2.02246 17.8945 2.69043 17.8945 3.4873ZM7.27734 10.6943L12.375 7.24902L7.27734 3.76855V10.6943Z"
          fill="#8C8C8C"/>

    <path id='twitter'
          d="M16.5938 2.11621C16.1719 2.77246 15.6094 3.3584 14.9062 3.87402V4.2959C14.9062 6.75684 14.0156 8.99512 12.2344 11.0107C10.4766 13.0029 8.13281 13.999 5.20312 13.999C3.32812 13.999 1.59375 13.4834 0 12.4521C0.375 12.499 0.644531 12.5225 0.808594 12.5225C2.37891 12.5225 3.78516 12.0303 5.02734 11.0459C4.30078 11.0225 3.64453 10.7998 3.05859 10.3779C2.47266 9.93262 2.07422 9.37012 1.86328 8.69043C2.14453 8.7373 2.35547 8.76074 2.49609 8.76074C2.73047 8.76074 3.03516 8.71387 3.41016 8.62012C2.63672 8.45605 1.98047 8.06934 1.44141 7.45996C0.925781 6.82715 0.667969 6.10059 0.667969 5.28027V5.24512C1.18359 5.52637 1.69922 5.66699 2.21484 5.66699C1.20703 5.01074 0.703125 4.06152 0.703125 2.81934C0.703125 2.2334 0.855469 1.6709 1.16016 1.13184C2.96484 3.3584 5.29688 4.54199 8.15625 4.68262C8.10938 4.51855 8.08594 4.26074 8.08594 3.90918C8.08594 2.94824 8.41406 2.13965 9.07031 1.4834C9.72656 0.827148 10.5352 0.499023 11.4961 0.499023C12.457 0.499023 13.2773 0.862305 13.957 1.58887C14.6602 1.47168 15.3867 1.19043 16.1367 0.745117C15.9023 1.56543 15.3984 2.19824 14.625 2.64355C15.3516 2.57324 16.0078 2.39746 16.5938 2.11621Z"
          fill="#8C8C8C"/>

    <path id='facebook'
          d="M4.5 4.99902H6.75L6.46875 7.24902H4.5V13.999H1.58203V7.24902H0V4.99902H1.58203V3.4873C1.58203 2.50293 1.82812 1.76465 2.32031 1.27246C2.8125 0.756836 3.63281 0.499023 4.78125 0.499023H6.75V2.74902H5.55469C5.10938 2.74902 4.81641 2.81934 4.67578 2.95996C4.55859 3.10059 4.5 3.33496 4.5 3.66309V4.99902Z"
          fill="#8C8C8C"/>

    <path id='lkdin'
          d="M12.4102 0.499023C12.7148 0.499023 12.9727 0.604492 13.1836 0.81543C13.3945 1.00293 13.5 1.24902 13.5 1.55371V12.8389C13.5 13.1436 13.3945 13.4131 13.1836 13.6475C12.9727 13.8818 12.7148 13.999 12.4102 13.999H1.16016C0.855469 13.999 0.585938 13.8818 0.351562 13.6475C0.117188 13.4131 0 13.1436 0 12.8389V1.55371C0 1.24902 0.105469 1.00293 0.316406 0.81543C0.550781 0.604492 0.832031 0.499023 1.16016 0.499023H12.4102ZM4.18359 11.749V5.7373H2.25V11.749H4.18359ZM2.53125 4.54199C2.71875 4.72949 2.96484 4.82324 3.26953 4.82324C3.57422 4.82324 3.82031 4.72949 4.00781 4.54199C4.21875 4.33105 4.32422 4.08496 4.32422 3.80371C4.32422 3.49902 4.23047 3.25293 4.04297 3.06543C3.85547 2.85449 3.60938 2.74902 3.30469 2.74902C3 2.74902 2.74219 2.85449 2.53125 3.06543C2.34375 3.25293 2.25 3.49902 2.25 3.80371C2.25 4.08496 2.34375 4.33105 2.53125 4.54199ZM11.25 11.749V8.2334C11.25 7.36621 11.0391 6.70996 10.6172 6.26465C10.2188 5.81934 9.69141 5.59668 9.03516 5.59668C8.33203 5.59668 7.74609 5.9248 7.27734 6.58105V5.7373H5.34375V11.749H7.27734V8.33887C7.27734 8.10449 7.30078 7.94043 7.34766 7.84668C7.53516 7.37793 7.86328 7.14355 8.33203 7.14355C8.98828 7.14355 9.31641 7.57715 9.31641 8.44434V11.749H11.25Z"
          fill="#8C8C8C"/>

</svg>